<?xml version="1.0" standalone="no"?>
<!DOCTYPE svg PUBLIC "-//W3C//DTD SVG 20010904//EN"
 "http://www.w3.org/TR/2001/REC-SVG-20010904/DTD/svg10.dtd">
<svg version="1.0" xmlns="http://www.w3.org/2000/svg"
 width="50.000000pt" height="50.000000pt" viewBox="0 0 50.000000 50.000000"
 preserveAspectRatio="xMidYMid meet">

<g transform="translate(0.000000,50.000000) scale(0.100000,-0.100000)"
fill="#000000" stroke="none">
<path d="M16 414 c-23 -23 -23 -305 0 -328 23 -24 445 -24 468 0 23 23 23 305
0 328 -23 24 -445 24 -468 0z m464 -164 l0 -160 -55 0 c-72 0 -125 25 -125 59
0 14 6 37 13 51 20 38 21 125 1 144 -19 20 -54 29 -85 23 -17 -3 -14 -5 11 -6
20 0 46 -8 58 -17 19 -13 22 -24 21 -67 -1 -28 -8 -63 -16 -77 -22 -42 -17
-77 15 -94 26 -14 22 -15 -68 -15 -90 0 -94 1 -67 15 31 17 36 52 14 94 -17
32 -21 114 -7 143 11 21 11 21 -5 2 -19 -23 -18 -107 2 -145 7 -14 13 -37 13
-51 0 -34 -53 -59 -125 -59 l-55 0 0 160 0 160 230 0 230 0 0 -160z"/>
</g>
</svg>
